# Blender 4.1.1
# www.blender.org
mtllib Mostrador3.mtl
o Mostrador3
v -0.148400 -0.149003 0.144400
v 0.148400 -0.149003 0.144400
v -0.148400 0.126319 0.144400
v 0.148400 0.126319 0.144400
v -0.148400 0.126319 -0.152400
v 0.148400 0.126319 -0.152400
v -0.148400 -0.149003 -0.152400
v 0.148400 -0.149003 -0.152400
v -0.155820 0.120855 0.151820
v 0.155820 0.120855 0.151820
v -0.155820 0.138160 0.151820
v 0.155820 0.138160 0.151820
v -0.155820 0.138160 -0.159820
v 0.155820 0.138160 -0.159820
v -0.155820 0.120855 -0.159820
v 0.155820 0.120855 -0.159820
v -0.155820 -0.154430 0.151820
v 0.155820 -0.154430 0.151820
v -0.155820 -0.136732 0.151820
v 0.155820 -0.136732 0.151820
v -0.155820 -0.136732 -0.159820
v 0.155820 -0.136732 -0.159820
v -0.155820 -0.154430 -0.159820
v 0.155820 -0.154430 -0.159820
v -0.148400 -0.149003 0.144400
v 0.148400 -0.149003 0.144400
v -0.148400 0.126319 0.144400
v 0.148400 0.126319 0.144400
v -0.148400 0.126319 -0.152400
v 0.148400 0.126319 -0.152400
v -0.148400 -0.149003 -0.152400
v 0.148400 -0.149003 -0.152400
v -0.155820 0.120855 0.151820
v 0.155820 0.120855 0.151820
v -0.155820 0.138160 0.151820
v 0.155820 0.138160 0.151820
v -0.155820 0.138160 -0.159820
v 0.155820 0.138160 -0.159820
v -0.155820 0.120855 -0.159820
v 0.155820 0.120855 -0.159820
v -0.155820 -0.154430 0.151820
v 0.155820 -0.154430 0.151820
v -0.155820 -0.136732 0.151820
v 0.155820 -0.136732 0.151820
v -0.155820 -0.136732 -0.159820
v 0.155820 -0.136732 -0.159820
v -0.155820 -0.154430 -0.159820
v 0.155820 -0.154430 -0.159820
vn -0.0000 -0.0000 1.0000
vn -0.0000 1.0000 -0.0000
vn -0.0000 -0.0000 -1.0000
vn -0.0000 -1.0000 -0.0000
vn 1.0000 -0.0000 -0.0000
vn -1.0000 -0.0000 -0.0000
vt -0.748853 0.874701
vt -0.748853 0.625299
vt -0.187936 0.874701
vt -0.187936 0.625299
vt -0.186590 0.874701
vt -0.186590 0.625299
vt 0.374327 0.874701
vt 0.374327 0.625299
vt -0.187936 0.624701
vt -0.748853 0.624701
vt -0.187936 0.375299
vt -0.748853 0.375299
vt 0.374327 0.624701
vt -0.186590 0.624701
vt 0.374327 0.375299
vt -0.186590 0.375299
vt 0.375673 0.874701
vt 0.375673 0.625299
vt 0.936590 0.874701
vt 0.936590 0.625299
vt 0.375673 0.624701
vt 0.375673 0.375299
vt 0.936590 0.624701
vt 0.936590 0.375299
vt -0.187936 0.374701
vt -0.748853 0.374701
vt -0.187936 0.125299
vt -0.748853 0.125299
vt 0.374327 0.374701
vt -0.186590 0.374701
vt 0.374327 0.125299
vt -0.186590 0.125299
vt 0.936590 0.374701
vt 0.375673 0.374701
vt 0.936590 0.125299
vt 0.375673 0.125299
vt 0.937936 0.874701
vt 0.937936 0.625299
vt 1.498853 0.874701
vt 1.498853 0.625299
vt 0.937936 0.624701
vt 0.937936 0.375299
vt 1.498853 0.624701
vt 1.498853 0.375299
vt 0.937936 0.374701
vt 0.937936 0.125299
vt 1.498853 0.374701
vt 1.498853 0.125299
s 0
usemtl Mostrario2:initialShadingGroup
f 1/1/1 2/2/1 3/3/1
f 3/3/1 2/2/1 4/4/1
f 3/5/2 4/6/2 5/7/2
f 5/7/2 4/6/2 6/8/2
f 5/7/3 6/8/3 7/5/3
f 7/5/3 6/8/3 8/6/3
f 7/3/4 8/4/4 1/1/4
f 1/1/4 8/4/4 2/2/4
f 2/5/5 8/6/5 4/7/5
f 4/7/5 8/6/5 6/8/5
f 7/2/6 1/1/6 5/4/6
f 5/4/6 1/1/6 3/3/6
f 9/9/1 10/10/1 11/11/1
f 11/11/1 10/10/1 12/12/1
f 11/13/2 12/14/2 13/15/2
f 13/15/2 12/14/2 14/16/2
f 13/15/3 14/16/3 15/13/3
f 15/13/3 14/16/3 16/14/3
f 15/11/4 16/12/4 9/9/4
f 9/9/4 16/12/4 10/10/4
f 10/13/5 16/14/5 12/15/5
f 12/15/5 16/14/5 14/16/5
f 15/10/6 9/9/6 13/12/6
f 13/12/6 9/9/6 11/11/6
f 17/17/1 18/18/1 19/19/1
f 19/19/1 18/18/1 20/20/1
f 19/21/2 20/22/2 21/23/2
f 21/23/2 20/22/2 22/24/2
f 21/23/3 22/24/3 23/21/3
f 23/21/3 22/24/3 24/22/3
f 23/19/4 24/20/4 17/17/4
f 17/17/4 24/20/4 18/18/4
f 18/21/5 24/22/5 20/23/5
f 20/23/5 24/22/5 22/24/5
f 23/18/6 17/17/6 21/20/6
f 21/20/6 17/17/6 19/19/6
f 25/25/1 26/26/1 27/27/1
f 27/27/1 26/26/1 28/28/1
f 27/29/2 28/30/2 29/31/2
f 29/31/2 28/30/2 30/32/2
f 29/31/3 30/32/3 31/29/3
f 31/29/3 30/32/3 32/30/3
f 31/27/4 32/28/4 25/25/4
f 25/25/4 32/28/4 26/26/4
f 26/29/5 32/30/5 28/31/5
f 28/31/5 32/30/5 30/32/5
f 31/26/6 25/25/6 29/28/6
f 29/28/6 25/25/6 27/27/6
f 33/33/1 34/34/1 35/35/1
f 35/35/1 34/34/1 36/36/1
f 35/37/2 36/38/2 37/39/2
f 37/39/2 36/38/2 38/40/2
f 37/39/3 38/40/3 39/37/3
f 39/37/3 38/40/3 40/38/3
f 39/35/4 40/36/4 33/33/4
f 33/33/4 40/36/4 34/34/4
f 34/37/5 40/38/5 36/39/5
f 36/39/5 40/38/5 38/40/5
f 39/34/6 33/33/6 37/36/6
f 37/36/6 33/33/6 35/35/6
f 41/41/1 42/42/1 43/43/1
f 43/43/1 42/42/1 44/44/1
f 43/45/2 44/46/2 45/47/2
f 45/47/2 44/46/2 46/48/2
f 45/47/3 46/48/3 47/45/3
f 47/45/3 46/48/3 48/46/3
f 47/43/4 48/44/4 41/41/4
f 41/41/4 48/44/4 42/42/4
f 42/45/5 48/46/5 44/47/5
f 44/47/5 48/46/5 46/48/5
f 47/42/6 41/41/6 45/44/6
f 45/44/6 41/41/6 43/43/6
