# This file uses centimeters as units for non-parametric coordinates.

mtllib CajaA.mtl
g default
v -0.166536 -0.185038 0.166536
v -0.166536 -0.166536 0.185038
v -0.185038 -0.166536 0.166536
v 0.185038 -0.166536 0.166536
v 0.166536 -0.166536 0.185038
v 0.166536 -0.185038 0.166536
v -0.185038 0.166536 0.166536
v -0.166536 0.166536 0.185038
v -0.166536 0.185038 0.166536
v 0.166536 0.185038 0.166536
v 0.166536 0.166536 0.185038
v 0.185038 0.166536 0.166536
v -0.185038 0.166536 -0.166536
v -0.166536 0.185038 -0.166536
v -0.166536 0.166536 -0.185038
v 0.166536 0.166536 -0.185038
v 0.166536 0.185038 -0.166536
v 0.185038 0.166536 -0.166536
v -0.185038 -0.166536 -0.166536
v -0.166536 -0.166536 -0.185038
v -0.166536 -0.185038 -0.166536
v 0.166536 -0.185038 -0.166536
v 0.166536 -0.166536 -0.185038
v 0.185038 -0.166536 -0.166536
vt 0.049995 0.049995
vt 0.000000 0.049995
vt 0.000000 0.950005
vt 0.049995 -0.000000
vt 0.049995 0.049995
vt -0.000000 0.950005
vt 0.950005 0.049995
vt 0.950005 0.950005
vt 1.000000 0.950005
vt 1.000000 0.049995
vt 0.000000 0.049995
vt 0.000000 0.950005
vt 0.049995 0.950005
vt 0.950005 0.950005
vt 0.950005 1.000000
vt 1.000000 0.049995
vt -0.000000 0.049995
vt 0.049995 0.950005
vt 0.950005 0.950005
vt 0.950005 1.000000
vt 1.000000 0.950005
vt 1.000000 0.049995
vt 0.049995 0.049995
vt 0.950005 0.049995
vt 0.950005 -0.000000
vt 0.950005 0.049995
vt 0.049995 0.049995
vt 0.950005 0.049995
vt 0.049995 0.950005
vt 0.950005 0.950005
vt 0.049995 0.950005
vt 0.049995 0.049995
vt 0.950005 0.049995
vt 0.950005 0.950005
vt 0.049995 0.950005
vt 0.950005 0.049995
vt 0.049995 0.049995
vt 0.049995 0.950005
vt 0.950005 0.950005
vt 0.950005 -0.000000
vt 0.049995 1.000000
vt 1.000000 0.950005
vt 0.049995 1.000000
vt 0.049995 -0.000000
vn -0.707107 -0.707106 0.000000
vn -0.707107 -0.707106 0.000000
vn -0.707106 -0.707107 0.000000
vn -0.707106 -0.707107 0.000000
vn 0.000000 -0.707107 0.707106
vn 0.000000 -0.707107 0.707106
vn 0.000000 -0.707106 0.707107
vn 0.000000 -0.707106 0.707107
vn -0.707106 0.000000 0.707107
vn -0.707106 0.000000 0.707107
vn -0.707107 0.000000 0.707106
vn -0.707107 0.000000 0.707106
vn 0.707106 -0.707107 0.000000
vn 0.707106 -0.707107 0.000000
vn 0.707107 -0.707106 0.000000
vn 0.707107 -0.707106 0.000000
vn 0.707107 0.000000 0.707106
vn 0.707107 0.000000 0.707106
vn 0.707106 0.000000 0.707107
vn 0.707106 0.000000 0.707107
vn -0.707106 0.707107 0.000000
vn -0.707106 0.707107 0.000000
vn -0.707107 0.707106 0.000000
vn -0.707107 0.707106 0.000000
vn 0.000000 0.707106 0.707107
vn 0.000000 0.707106 0.707107
vn 0.000000 0.707107 0.707106
vn 0.000000 0.707107 0.707106
vn 0.707107 0.707106 0.000000
vn 0.707107 0.707106 0.000000
vn 0.707106 0.707107 0.000000
vn 0.707106 0.707107 0.000000
vn -0.707106 0.000000 -0.707107
vn -0.707106 0.000000 -0.707107
vn -0.707107 0.000000 -0.707106
vn -0.707107 0.000000 -0.707106
vn 0.000000 0.707107 -0.707106
vn 0.000000 0.707107 -0.707106
vn 0.000000 0.707106 -0.707107
vn 0.000000 0.707106 -0.707107
vn 0.707107 0.000000 -0.707106
vn 0.707107 0.000000 -0.707106
vn 0.707106 0.000000 -0.707107
vn 0.707106 0.000000 -0.707107
vn 0.000000 -0.707106 -0.707107
vn 0.000000 -0.707106 -0.707107
vn 0.000000 -0.707107 -0.707106
vn 0.000000 -0.707107 -0.707106
vn 0.000000 0.000000 1.000000
vn 0.000000 0.000000 1.000000
vn 0.000000 0.000000 1.000000
vn 0.000000 0.000000 1.000000
vn 0.000000 1.000000 0.000000
vn 0.000000 1.000000 0.000000
vn 0.000000 1.000000 0.000000
vn 0.000000 1.000000 0.000000
vn 0.000000 0.000000 -1.000000
vn 0.000000 0.000000 -1.000000
vn 0.000000 0.000000 -1.000000
vn 0.000000 0.000000 -1.000000
vn 0.000000 -1.000000 0.000000
vn 0.000000 -1.000000 0.000000
vn 0.000000 -1.000000 0.000000
vn 0.000000 -1.000000 0.000000
vn 1.000000 0.000000 0.000000
vn 1.000000 0.000000 0.000000
vn 1.000000 0.000000 0.000000
vn 1.000000 0.000000 0.000000
vn -1.000000 0.000000 0.000000
vn -1.000000 0.000000 0.000000
vn -1.000000 0.000000 0.000000
vn -1.000000 0.000000 0.000000
vn -0.577350 -0.577350 0.577350
vn -0.577350 -0.577350 0.577350
vn -0.577350 -0.577350 0.577350
vn 0.577350 -0.577350 0.577350
vn 0.577350 -0.577350 0.577350
vn 0.577350 -0.577350 0.577350
vn -0.577350 0.577350 0.577350
vn -0.577350 0.577350 0.577350
vn -0.577350 0.577350 0.577350
vn 0.577350 0.577350 0.577350
vn 0.577350 0.577350 0.577350
vn 0.577350 0.577350 0.577350
vn -0.577350 0.577350 -0.577350
vn -0.577350 0.577350 -0.577350
vn -0.577350 0.577350 -0.577350
vn 0.577350 0.577350 -0.577350
vn 0.577350 0.577350 -0.577350
vn 0.577350 0.577350 -0.577350
vn -0.577350 -0.577350 -0.577350
vn -0.577350 -0.577350 -0.577350
vn -0.577350 -0.577350 -0.577350
vn 0.577350 -0.577350 -0.577350
vn 0.577350 -0.577350 -0.577350
vn 0.577350 -0.577350 -0.577350
s 1
g pCube1
usemtl lambert2SG
f 1/1/1 3/2/2 21/31/3
f 21/31/3 3/2/2 19/3/4
s 2
f 2/5/5 1/4/6 5/26/7
f 5/26/7 1/4/6 6/40/8
s 3
f 3/2/9 2/5/10 7/6/11
f 7/6/11 2/5/10 8/13/12
s 4
f 4/10/13 6/7/14 24/9/15
f 24/9/15 6/7/14 22/8/16
s 5
f 5/26/17 4/10/18 11/14/19
f 11/14/19 4/10/18 12/42/20
s 6
f 7/11/21 9/27/22 13/12/23
f 13/12/23 9/27/22 14/18/24
s 7
f 9/41/25 8/13/26 10/15/27
f 10/15/27 8/13/26 11/14/28
s 8
f 10/28/29 12/16/30 17/19/31
f 17/19/31 12/16/30 18/21/32
s 9
f 13/12/33 15/29/34 19/17/35
f 19/17/35 15/29/34 20/23/36
s 10
f 15/43/37 14/18/38 16/20/39
f 16/20/39 14/18/38 17/19/40
s 11
f 16/30/41 18/21/42 23/24/43
f 23/24/43 18/21/42 24/22/44
s 12
f 21/44/45 20/23/46 22/25/47
f 22/25/47 20/23/46 23/24/48
s 13
f 2/5/49 5/26/50 8/13/51
f 8/13/51 5/26/50 11/14/52
s 14
f 9/27/53 10/28/54 14/18/55
f 14/18/55 10/28/54 17/19/56
s 15
f 15/29/57 16/30/58 20/23/59
f 20/23/59 16/30/58 23/24/60
s 16
f 21/31/61 22/8/62 1/1/63
f 1/1/63 22/8/62 6/7/64
s 17
f 4/32/65 24/33/66 12/35/67
f 12/35/67 24/33/66 18/34/68
s 18
f 19/36/69 3/37/70 13/39/71
f 13/39/71 3/37/70 7/38/72
s off
f 1/4/73 2/5/74 3/2/75
f 4/10/76 5/26/77 6/40/78
f 7/6/79 8/13/80 9/41/81
f 10/15/82 11/14/83 12/42/84
f 13/12/85 14/18/86 15/43/87
f 16/20/88 17/19/89 18/21/90
f 19/17/91 20/23/92 21/44/93
f 22/25/94 23/24/95 24/22/96
